<?xml version="1.0" encoding="UTF-8"?>
<svg id="Calque_1" data-name="Calque 1" xmlns="http://www.w3.org/2000/svg" viewBox="0 0 183 37.99">
  <defs>
    <style>
      .cls-1 {
        fill: #fff;
      }

      .cls-2 {
        fill: #292728;
      }
    </style>
  </defs>
  <path class="cls-2" d="M182.9,30.04h-.07c-.82-.15-.82-.3-.82-2.63v-7.03c0-2.23-1.46-3.95-3.4-3.95s-1.96,0-4.52,1.99l-.15.1v-2.09s-.05-.05-.05-.05h-.15l-5.19,1.99s-.05.02-.05.05h0s0,.07.05.12l.62,1.07c.27.37.4.82.35,1.27v6.48c0,2.33,0,2.46-.82,2.61h-.1s-.07.1-.07.27c0,.07,0,.15.07.22,0,0,.05.02.07.02h6.01c.12,0,.25-.07.27-.22v-.02c0-.25-.12-.27-.15-.27h-.05c-.82-.15-.82-.3-.82-2.61v-8.17h.05c.37-.15.77-.2,1.14-.2,1.66,0,2.46,1.44,2.46,4.37v4c0,2.33,0,2.46-.82,2.61h-.05s-.15.02-.15.27c0,0,0,.25.17.25h6.08s.07,0,.1-.05c.05-.05.07-.12.07-.2,0-.25-.12-.27-.12-.27l.02.07ZM71.05,9.19c.2-.6.57-.99,1.79-1.09h.05c.1,0,.22-.05.22-.3s-.15-.3-.2-.3h-9.01c-.22,0-.22.22-.22.3,0,.25.12.27.22.3h.05c1.22.1,1.59.5,1.79,1.09.22.65.27,4.27.3,7.35v.05l-9.21,2.98v-.15c0-4.05.05-9.53.3-10.28.2-.6.57-.99,1.79-1.09h.05c.1,0,.22-.05.22-.3s0-.3-.22-.3h-8.96s-.2,0-.2.3.1.27.22.3c1.22.1,1.59.5,1.79,1.09.27.79.3,6.03.3,10.87v.89c0,5.11-.02,7.13-.3,7.92-.2.6-.57.99-1.79,1.09h0s-.2,0-.2.3.1.27.22.3h8.94c.22,0,.22-.22.22-.3,0-.12-.07-.27-.2-.3h-.05c-1.22-.1-1.59-.5-1.79-1.09-.27-.77-.3-2.83-.3-7.7v-.05l9.24-2.98v2.83c0,5.11-.02,7.13-.3,7.92-.2.6-.57.97-1.76,1.09h-.02c-.15,0-.25.1-.25.25v.05c0,.07,0,.3.22.3h9.01c.1,0,.22-.05.22-.3s-.15-.3-.2-.3h-.12c-1.17-.12-1.51-.52-1.71-1.09-.27-.79-.3-2.81-.3-7.92v-.89c0-4.84.02-10.1.3-10.9h0l-.15.05ZM96.06,30.04h0c-.82-.15-.82-.3-.82-2.61V7.67l-.02-.05h-.1l-5.34,1.64s-.05.05-.05.07h0s0,.1.02.12l.74,1.07c.27.37.4.82.35,1.27v15.59c0,2.33,0,2.46-.82,2.61-.15,0-.2.1-.2.25,0,.25.12.25.17.25h6.08s.17,0,.17-.25c0-.15-.05-.22-.2-.25h0v.05ZM137.47,16.44c-1.17,0-2.21.65-3.5,2.68l-.15.25v-2.95s-.02-.05-.05-.05h-.12l-5.24,2.06s-.02.05,0,.07c0,.05,0,.07.05.1l.62,1.04c.25.37.4.82.35,1.27v6.48c0,2.33,0,2.46-.82,2.61h-.02c-.07,0-.17.05-.15.25h0c0,.07,0,.12.05.17s.12.07.2.07h6.78s.1,0,.12-.05c.05-.07.07-.15.07-.25,0-.25-.12-.25-.15-.27l-.87-.07c-.77-.05-.82-.17-.82-2.53v-7.2h.02c.3-.3.67-.45,1.09-.47.5,0,.82.25,1.17.52s.77.6,1.42.6c1.12-.1,1.99-1.02,1.99-2.14,0-1.34-.79-2.21-2.06-2.21l.03.02ZM80.81,16.29c-4.22,0-7.67,3.28-7.67,7.27s2.88,7.1,7.67,7.1,7.7-3.28,7.7-7.27c0-3.5-2.88-7.1-7.7-7.1ZM80.81,29.99c-.82,0-1.51-.65-2.01-1.89s-.74-2.9-.74-4.87c0-3.95.99-6.23,2.76-6.23s2.78,2.66,2.78,6.75-.99,6.23-2.78,6.23ZM107.67,16.29c-2.01,0-3.72,1.19-4.67,1.96l-.12.12V7.55s0-.05-.02-.05h-.17l-5.31,1.61c-.07,0-.07.05-.07.07h0s0,.07.02.12l.77,1.12c.27.37.4.82.35,1.27v12.41c0,1.59-.05,2.73-.1,4.05v.62h-.02c1.54,1.24,3.95,1.94,6.58,1.94,4,0,8.12-3.05,8.12-8.14,0-3.72-2.16-6.23-5.39-6.23l.05-.05ZM105.24,29.72c-1.19,0-2.36-1.14-2.36-3.67v-7h.05c.42-.1.87-.15,1.32-.15,2.43,0,4.05,2.16,4.05,5.36s-1.17,5.49-3.05,5.49v-.02ZM159.61,16.31c-4.22,0-7.67,3.28-7.67,7.27s2.88,7.1,7.67,7.1,7.7-3.28,7.7-7.27c0-3.5-2.88-7.13-7.7-7.13h0v.02ZM159.61,29.99c-.82,0-1.51-.65-2.01-1.89s-.74-2.9-.74-4.87c0-3.95.99-6.23,2.76-6.23s2.78,2.66,2.78,6.75-.99,6.21-2.78,6.21h0v.02ZM126.99,26.27s-.05-.02-.1-.02h-.02c-.72.94-1.84,1.44-3,1.42-3.05,0-4.94-2.21-4.94-5.76v-.57h6.48c.89,0,1.32-.4,1.32-1.22,0-2.23-2.01-3.82-4.89-3.82s-7.32,2.98-7.32,7.8,2.68,6.6,6.53,6.6c2.71-.02,5.11-1.76,5.98-4.32h0c0-.07-.02-.1-.05-.12h0l.02.02ZM119.02,20.58c.1-.82.4-1.61.84-2.31.47-.7,1.04-1.04,1.69-1.07,1.17-.05,1.59.99,1.59,2.76s-.25.67-.72.7h-3.43s0-.07,0-.07h.02ZM150.95,27.14h-.05c-.72.42-1.56.65-2.41.62-1.19,0-2.28-.17-2.28-1.39v-8.52h3.65c.45.05.84-.27.89-.72v-.57c0-.07-.05-.12-.12-.12h-4.42v-2.63s0-.07-.05-.1c-.02,0-.05-.02-.1-.02h-.05l-5.24,2.21s-.02.07-.02.07h0s0,.07.05.1h0c.37.25,1.02.74,1.02,1.51v10.01c0,3.58,1.64,3.08,3.97,3.08s4.32-1.74,5.26-3.35h0s.02-.12,0-.15-.07-.05-.1-.02h0Z"/>
  <g>
    <circle class="cls-2" cx="18.99" cy="18.99" r="18.99"/>
    <path class="cls-1" d="M26.69,11.15c.15-.47.45-.79,1.44-.87h.02c.07,0,.17-.05.17-.22s-.12-.22-.17-.22h-7.2c-.17,0-.2.17-.2.22,0,.2.1.22.17.22h.05c.97.1,1.27.4,1.42.87.2.52.22,3.4.22,5.86v.05l-7.35,2.38v-.1c0-3.23.02-7.6.22-8.19.15-.47.45-.79,1.42-.87h.02c.07,0,.17-.02.17-.22s0-.22-.2-.22h-7.15s-.17,0-.17.22.1.22.17.22c.97.1,1.27.4,1.44.87.22.62.25,4.82.25,8.69v.72c0,4.1,0,5.69-.25,6.31-.15.47-.45.79-1.42.87h0s-.17,0-.17.22.1.22.17.22h7.13c.17,0,.2-.17.2-.22,0-.1-.05-.2-.17-.22h-.02c-.97-.07-1.27-.4-1.44-.87-.22-.62-.22-2.26-.25-6.13v-.05l7.37-2.38v2.26c0,4.1,0,5.69-.25,6.31-.15.47-.45.77-1.42.87h-.02c-.1,0-.2.07-.2.2v.02s0,.22.2.22h7.2c.07,0,.17-.02.17-.22s-.12-.22-.17-.22h-.1c-.92-.1-1.22-.42-1.37-.87-.22-.62-.25-2.23-.25-6.31v-.72c0-3.87,0-8.07.22-8.69h.07Z"/>
  </g>
</svg>